<?xml version="1.0" encoding="utf-8"?>
<!-- Generator: Adobe Illustrator 24.3.0, SVG Export Plug-In . SVG Version: 6.00 Build 0)  -->
<svg version="1.1" id="Layer_1" xmlns="http://www.w3.org/2000/svg" xmlns:xlink="http://www.w3.org/1999/xlink" x="0px" y="0px"
	 viewBox="0 0 23.4 21.6" style="enable-background:new 0 0 23.4 21.6;" xml:space="preserve">
<style type="text/css">
	.st0{fill:#67A247;}
</style>
<path id="Path_27" class="st0" d="M23.4,0.4c0-0.3-0.1-0.6-0.8-0.1l0,0C20.4,1.6,10.4,12.9,8.8,14.8c-0.1,0.1-0.3,0.1-0.4,0
	c0,0,0,0,0,0L6.5,13l-2.3-2.1C4.1,10.9,4,10.8,4,10.8l0,0c-0.5-0.3-1.2-0.4-1.8,0c0,0-2.8,0.9-2,2.2c2.4,3,4.9,5.7,7.7,8.3
	c0.6,0.4,0.9,0.9,2.8-1.4l0,0l0.2-0.3l0,0c0,0,11.5-16.8,12.4-18.8l0,0c0,0,0,0,0,0c0,0,0,0,0,0C23.4,0.6,23.4,0.5,23.4,0.4z"/>
</svg>
